<svg version="1.2" xmlns="http://www.w3.org/2000/svg" viewBox="0 0 512 512" width="512" height="512">
	<title>member-3-svg</title>
	<style>
		.s0 { fill: #00bfa6 } 
		.s1 { fill: #2f2e41 } 
		.s2 { fill: #ffb8b8 } 
	</style>
	<g id="Folder 1">
		<path id="Layer" class="s0" d="m346.4 512h-171.3l10.6-160.6 61.9 14.3 60.1-23.2 1.6-0.6 0.1-0.1q0 0.1 0 0.2c1 3.8 19.9 79.5 37 170z"/>
		<path id="Layer" class="s1" d="m449.7 377.6l-16 134.4h-144.4l18.4-169.5 0.2-1.7 1.4 1.1 0.1 0.1 35.7 26z"/>
		<path id="Layer" class="s1" d="m200.4 512h-129.4l-1.8-105.8 95.2-31.7 21.3-23.1c0 0 6.8 69.7 14.7 160.6z"/>
		<path id="Layer" class="s1" d="m512 512h-107.2l6.9-96.3 38-38.1c0 0 30.1 63.3 62.3 134.4z"/>
		<path id="Layer" class="s1" d="m101.5 512h-56.5c0.2-30.8 0.4-52.1 0.4-58.2-0.3-9.3 1.7-18.5 5.9-26.8 4.1-8.3 10.3-15.5 17.9-20.8l28.5 9.5z"/>
		<path id="Layer" class="s1" d="m92.7 186c0.1-26.1 7-51.8 19.9-74.4 13-22.7 31.6-41.6 54-55 47.7-28.2 105.2-27.6 157.8 1.4 37.5 20.8 68 72.9 68 116.3v126.5h-299.7z"/>
		<path id="Layer" class="s2" d="m288.5 284.4c52.5-28.7 71.7-94.6 43.1-147.2-28.7-52.5-94.5-71.8-146.9-43.1-52.5 28.7-71.7 94.6-43.1 147.2 28.7 52.5 94.5 71.8 146.9 43.1z"/>
		<path id="Layer" class="s1" d="m123.7 190.3c-0.8-1-2.7-3.2 10.7-106.1l0.4-1.7h1.2c67.7-33.4 136.3-34.2 204.1-2.5 2 1 3.8 2.5 5.2 4.4 1.3 1.9 2.1 4.1 2.3 6.4 7.9 96.7 6 98.8 5.2 99.7-1.2 1.4-2.8 2.5-4.4 3.2-1.7 0.8-3.5 1.1-5.4 1.1h-30l-0.6-1.1q-7.8-14.4-17-27.9-4.2 13.4-6.9 27.3l-0.4 1.7h-154.4c-1.9 0-3.7-0.4-5.5-1.1-1.7-0.8-3.2-2-4.5-3.4z"/>
	</g>
</svg>