<svg version="1.2" xmlns="http://www.w3.org/2000/svg" viewBox="0 0 512 512" width="512" height="512">
	<title>member-3-svg</title>
	<style>
		.s0 { fill: #00bfa6 } 
		.s1 { fill: #ffb8b8 } 
		.s2 { fill: #2f2e41 } 
	</style>
	<g id="Folder 2">
		<path id="Layer" class="s0" d="m358.1 508.7h-179.8l11.2-168.2 64.8 15 63.1-24.3 1.7-0.6 0.1-0.1q0 0.1 0.1 0.2c0.9 4 20.7 83.3 38.8 178z"/>
		<path id="Layer" class="s1" d="m297.3 270.4c55-30 75.2-99 45.2-154-30.1-55.1-99.1-75.3-154.1-45.2-55 30.1-75.2 99-45.2 154.1 30.1 55 99.1 75.2 154.1 45.1z"/>
		<path id="Layer" class="s2" d="m124.5 171.9c-0.9-1-2.9-3.3 11.1-111.1l0.4-1.7h1.3c71-35 143-35.8 214.1-2.7 2.2 1.1 4 2.7 5.4 4.6 1.4 2 2.3 4.3 2.5 6.7 8.3 101.3 6.3 103.5 5.4 104.4-1.3 1.5-2.9 2.6-4.6 3.4-1.8 0.8-3.7 1.2-5.6 1.2h-31.5l-0.7-1.2q-8.1-15.1-17.7-29.2-4.5 14-7.3 28.5l-0.4 1.9h-161.9c-2 0-4-0.5-5.8-1.3-1.8-0.8-3.4-2-4.7-3.5z"/>
		<path id="Layer" class="s2" d="m313.5 336.3c0 0-107.6-24.8-166.7 20.7-59.2 45.4 75.2 148.7 75.2 148.7z"/>
		<path id="Layer" class="s1" d="m242.1 289.5c-56.1 0-101.4-45.4-101.4-101.5 0-56.1 45.3-101.4 101.4-101.4 56.1 0 101.5 45.3 101.5 101.4 0 56.1-45.4 101.5-101.5 101.5z"/>
		<path id="Layer" class="s0" d="m301 316.9l-51.2 82.7-74.7-74.8-139.9 97.9c-4.9 3.4-8.5 8.4-10.2 14.1-1.7 5.8-1.4 11.9 0.8 17.4 21.5 53.2 76.6 210.4 60.7 392.2 0 0 106.3-27.6 216.5 3.9 110.2 31.5 137.8 19.7 137.8 19.7 0 0-27.6-200.8-11.8-244.1 13-35.9 39.6-155.8 48.3-195.6 0.8-3.8 0.4-7.7-1.1-11.2-1.6-3.5-4.3-6.4-7.7-8.3z"/>
		<path id="Layer" class="s0" d="m464.5 411.3c4.3-0.6 8.7 0.3 12.4 2.7 3.6 2.4 6.3 6.1 7.5 10.3l66.6 240.6-15.7 145.7-74.8-11.8 7.8-102.4-55.1-129.9 36.4-141.9c0.9-3.4 2.8-6.5 5.4-8.9 2.7-2.4 6-3.9 9.5-4.4z"/>
		<path id="Layer" class="s2" d="m163.7 45.6c6.7-11.5 16.5-20.9 28.3-27.1 11.8-6.3 25-9.2 38.3-8.4 13.9 1.8 27.5 5.6 40.3 11.3l66.4 25.9c17.1 6.7 35.9 14.9 43.4 31.7 6.9 15.7 1.7 33.7-3.5 50l-24.8 77.4c-2.8-17.5-7.5-34.7-14.1-51.1-7.2-16.2-18.6-31.1-34.4-39.2-17.2-8.8-37.5-8.7-56.8-7.7-27.4 1.3-57.2 4.8-76.7 24.1-10.3 11-17.3 24.6-20.2 39.4-2.8 14.8-4.2 29.7-4.2 44.7-11.2-19.3-20.7-39.6-28.3-60.6-6.2-15.7-9.8-32.2-10.5-49.1-0.6-16.9 5-33.6 15.8-46.6 11.2-12.6 29.5-19.3 45.6-14.4"/>
		<path id="Layer" class="s0" d="m36.7 421.3c-6 1-11.4 4-15.5 8.5-4 4.5-6.3 10.2-6.6 16.3l-22.6 451.1h82.7l27.5-240.2-35-213.9c-0.6-3.4-1.8-6.7-3.7-9.7-1.8-2.9-4.2-5.5-7.1-7.5-2.8-2.1-6-3.5-9.4-4.3-3.4-0.8-6.9-0.9-10.3-0.3z"/>
	</g>
</svg>