<svg version="1.2" xmlns="http://www.w3.org/2000/svg" viewBox="0 0 512 512" width="512" height="512">
	<title>member-3-svg</title>
	<style>
		.s0 { fill: #ffb8b8 } 
		.s1 { fill: #00bfa6 } 
		.s2 { fill: #2f2e41 } 
	</style>
	<g id="Folder 3">
		<path id="Layer" class="s0" d="m236.6 275.6c-60.1 0-108.7-48.6-108.7-108.7 0-60.1 48.6-108.7 108.7-108.7 60.1 0 108.7 48.6 108.7 108.7 0 60.1-48.6 108.7-108.7 108.7z"/>
		<path id="Layer" class="s1" d="m395.6 511.7h-241l7.9-177.2 1.9-2 27-28.6h86.1l31.9 30.9 2.5 2.5 67.9 65.1z"/>
		<path id="Layer" class="s2" d="m196.1 511.7h-182.4c-0.4-40-0.7-64-0.7-64l10.6-6.4q0 0 0 0h0.1l116.1-70.6 24.4-39.6 0.2 1.4 7.1 83.5c0 0 11.9 38.3 24.6 95.7z"/>
		<path id="Layer" class="s2" d="m502.5 511.7h-193.1c2.9-116.7-12.9-180.6-4.8-180.6l4.8 3.7 56.9 45 75 27.5 51.8 19 9 3.3v4.3c0 10.2 0.1 38.2 0.4 77.8z"/>
		<path id="Layer" class="s2" d="m133.7 200.9c0 0 9.3-16.2 7.1-70.4-2.1-54.1 80.4-23.5 149.3-28.7 69-5.1 54.4 90.5 54.4 90.5 0 0 4.9-5.7 15.6-51.8 10.6-46.2-13.5-92.2-13.5-92.2-7.2-48.5-45.5-32.9-45.5-32.9 18.4 7.2 14.9 22.5 14.9 22.5-15.6-27.4-54-11.8-54-11.8-51.2-32.2-103.1 10.1-103.1 10.1-61.8 14.1-25.5 63.2-25.5 63.2-62.2 31.5 0.3 101.5 0.3 101.5z"/>
		<path id="Layer" class="s2" d="m38.1 511.7h-74.9q0.8-13.9 0-27.8c-4.5-17.8 58.5-41.9 60.4-42.6q0 0 0 0h0.1l12 6.4z"/>
		<path id="Layer" class="s2" d="m516 511.7h-78.7l-9.8-97 11-8.1c0 0 1 0.3 2.8 0.7 8.9 2.2 36.2 9.4 51.8 19 3.4 1.9 6.5 4.5 9 7.6 1.6 1.8 2.3 4.2 2.2 6.6-0.4 3.7 4.2 30.3 11.7 71.2z"/>
	</g>
</svg>